<svg width="16" height="15" viewBox="0 0 16 15" fill="none" xmlns="http://www.w3.org/2000/svg">
<path d="M3.5478 3.9897C3.54783 3.77438 3.62688 3.56656 3.76996 3.40566C3.91304 3.24475 4.1102 3.14196 4.32404 3.11676L4.42689 3.11061H12.8846L11.2776 1.50364C11.1183 1.34581 11.0253 1.13304 11.0177 0.908898C11.0101 0.684751 11.0884 0.466172 11.2367 0.297903C11.385 0.129634 11.592 0.0244001 11.8153 0.0037403C12.0386 -0.0169195 12.2614 0.0485579 12.438 0.18677L12.5206 0.260613L15.6291 3.36818C15.7804 3.51956 15.8714 3.72095 15.8848 3.9346C15.8982 4.14824 15.8333 4.35944 15.7021 4.52858L15.6291 4.61121L12.5206 7.71966C12.3624 7.87732 12.1502 7.96886 11.9269 7.97568C11.7037 7.98249 11.4862 7.90408 11.3187 7.75636C11.1512 7.60865 11.0461 7.4027 11.025 7.18036C11.0038 6.95802 11.068 6.73596 11.2046 6.55927L11.2776 6.47575L12.8837 4.86878H4.42689C4.19374 4.86878 3.97014 4.77617 3.80528 4.61131C3.64042 4.44644 3.5478 4.22285 3.5478 3.9897ZM0.257384 10.4009L3.36583 7.2933C3.44693 7.20934 3.54393 7.14237 3.65118 7.0963C3.75843 7.05023 3.87379 7.02598 3.99051 7.02496C4.10724 7.02395 4.22299 7.04619 4.33103 7.09039C4.43907 7.13459 4.53722 7.19987 4.61976 7.28241C4.7023 7.36495 4.76757 7.4631 4.81177 7.57114C4.85597 7.67917 4.87822 7.79493 4.8772 7.91165C4.87619 8.02838 4.85194 8.14373 4.80587 8.25098C4.75979 8.35824 4.69282 8.45524 4.60886 8.53633L3.00189 10.1433H11.4587C11.6918 10.1433 11.9154 10.2359 12.0803 10.4008C12.2452 10.5656 12.3378 10.7892 12.3378 11.0224C12.3378 11.2555 12.2452 11.4791 12.0803 11.644C11.9154 11.8089 11.6918 11.9015 11.4587 11.9015H3.00277L4.60886 13.5102C4.76899 13.676 4.8576 13.8981 4.8556 14.1286C4.8536 14.359 4.76114 14.5795 4.59815 14.7425C4.43516 14.9055 4.21468 14.998 3.98418 15C3.75369 15.002 3.53163 14.9134 3.36583 14.7532L0.257384 11.6448C0.0925812 11.4799 0 11.2564 0 11.0233C0 10.7902 0.0925812 10.5657 0.257384 10.4009Z" fill="white"/>
</svg>
