<svg width="16" height="19" viewBox="0 0 16 19" fill="none" xmlns="http://www.w3.org/2000/svg">
<path d="M10.5438 14.3523V14.9881C10.5438 15.6627 10.2758 16.3096 9.79886 16.7865C9.3219 17.2635 8.675 17.5314 8.00047 17.5314C7.32595 17.5314 6.67905 17.2635 6.20209 16.7865C5.72513 16.3096 5.45718 15.6627 5.45718 14.9881V14.3523M14.8229 13.058C13.8024 11.809 13.0819 11.1732 13.0819 7.7298C13.0819 4.57651 11.4717 3.45309 10.1464 2.90747C9.97034 2.83515 9.80463 2.66904 9.75098 2.48823C9.51851 1.69702 8.86679 1 8.00047 1C7.13416 1 6.48205 1.69742 6.25196 2.48902C6.19831 2.67182 6.0326 2.83515 5.85655 2.90747C4.52967 3.45389 2.92103 4.57333 2.92103 7.7298C2.91904 11.1732 2.19858 11.809 1.17808 13.058C0.755255 13.5754 1.12562 14.3523 1.86517 14.3523H14.1398C14.8753 14.3523 15.2433 13.573 14.8229 13.058Z" stroke="white" stroke-linecap="round" stroke-linejoin="round"/>
</svg>
