<svg width="20" height="20" viewBox="0 0 20 20" fill="none" xmlns="http://www.w3.org/2000/svg">
<path opacity="0.985" fill-rule="evenodd" clip-rule="evenodd" d="M12.5195 2.63672C14.1733 2.63021 15.8269 2.63672 17.4805 2.65625C17.9506 2.78784 18.2306 3.09383 18.3203 3.57422C18.3464 6.28254 18.3464 8.9909 18.3203 11.6992C18.2097 12.2266 17.8906 12.5456 17.3633 12.6562C15.7878 12.6823 14.2122 12.6823 12.6367 12.6562C12.056 12.5313 11.737 12.1732 11.6797 11.582C11.6536 8.95184 11.6536 6.3216 11.6797 3.69141C11.7375 3.15742 12.0175 2.80586 12.5195 2.63672ZM13.8086 10.918C14.603 10.9114 15.3972 10.918 16.1914 10.9375C16.395 11.0664 16.4275 11.2291 16.2891 11.4258C16.2247 11.4733 16.1531 11.5059 16.0742 11.5234C15.3581 11.5495 14.6419 11.5495 13.9258 11.5234C13.6099 11.3766 13.5709 11.1747 13.8086 10.918Z" fill="white"/>
<path opacity="0.991" fill-rule="evenodd" clip-rule="evenodd" d="M3.53516 6.03516C6.03516 6.03516 8.53516 6.03516 11.0352 6.03516C11.0286 7.89719 11.0352 9.75914 11.0547 11.6211C11.1491 12.4576 11.5983 12.998 12.4023 13.2422C13.3904 13.2985 14.38 13.318 15.3711 13.3008C15.3776 13.7177 15.3711 14.1343 15.3516 14.5508C15.2279 15.2474 14.8177 15.6575 14.1211 15.7812C10.6055 15.8073 7.08984 15.8073 3.57422 15.7812C2.92921 15.6902 2.51905 15.3321 2.34375 14.707C2.31771 12.181 2.31771 9.65496 2.34375 7.12891C2.51994 6.51773 2.91708 6.15316 3.53516 6.03516Z" fill="white"/>
<path opacity="0.945" fill-rule="evenodd" clip-rule="evenodd" d="M1.89472 16.6211C6.51714 16.6146 11.1395 16.6211 15.7619 16.6406C16.0311 16.7503 16.1027 16.9391 15.9767 17.207C15.9415 17.254 15.8959 17.2865 15.84 17.3047C11.1655 17.3307 6.49109 17.3307 1.81659 17.3047C1.62266 17.1686 1.57709 16.9929 1.67987 16.7773C1.73846 16.7004 1.81007 16.6484 1.89472 16.6211Z" fill="white"/>
</svg>
