<svg width="186" height="73" viewBox="0 0 186 73" fill="none" xmlns="http://www.w3.org/2000/svg">
<path d="M1 71L8.52033 64.913L13.7846 71L27.6972 50.9638L32.2093 53.5L35.5935 56.7971L39.7297 54.7681L41.9858 50.9638L46.498 47.413L54.3943 48.1739L61.1626 56.7971L68.3069 45.6377L70.939 38.2826L79.2114 24.3333L84.0996 29.913L89.7398 40.058L93.124 41.8333L102.9 43.6087L111.925 35.7464L113.805 29.913L117.565 19.7681L126.965 13.1739L133.358 19.7681L136.366 22.0507L140.502 26.1087L147.27 29.913L153.287 30.9275L162.311 26.1087L164.943 18.2464L170.583 6.83333L176.976 2.77536L181.112 1H186" stroke="white" stroke-width="2"/>
</svg>
