<svg width="300" height="300" viewBox="0 0 300 300" fill="none" xmlns="http://www.w3.org/2000/svg">
<g clip-path="url(#clip0_78_2370)">
<mask id="mask0_78_2370" style="mask-type:luminance" maskUnits="userSpaceOnUse" x="0" y="0" width="300" height="300">
<path d="M300 0H0V300H300V0Z" fill="white"/>
</mask>
<g mask="url(#mask0_78_2370)">
<path d="M237.594 194.096L237.625 201.05L237.548 202.995C237.507 203.437 237.437 203.927 237.323 204.455C237.184 205.099 237.008 205.669 236.827 206.157C236.54 206.821 236.152 207.574 235.621 208.356C234.594 209.872 233.433 210.913 232.534 211.587L228.163 214.388L222.853 217.791L215.689 212.025L229.45 200.128L237.594 194.096Z" fill="url(#paint0_linear_78_2370)"/>
<path d="M190.72 195.659L196.375 192.661C196.375 192.661 201.233 190.446 206.181 190.538C206.181 190.538 213.469 189.542 220.644 193.097C227.818 196.652 229.521 202.068 229.521 202.068C229.521 202.068 231.08 192.822 229.024 188.991C226.967 185.161 214.766 177.004 207.106 178.139C199.445 179.273 183.13 191.12 183.13 191.12L190.72 195.659Z" fill="url(#paint1_linear_78_2370)"/>
<mask id="mask1_78_2370" style="mask-type:luminance" maskUnits="userSpaceOnUse" x="181" y="208" width="10" height="13">
<path d="M190.092 208.495L190.067 217.169C190.065 218.167 189.452 219.128 188.209 219.85C186.369 220.919 183.623 221.189 181.094 220.698L181.119 212.025C183.647 212.515 186.394 212.246 188.233 211.177C189.477 210.454 190.089 209.494 190.092 208.495Z" fill="white"/>
</mask>
<g mask="url(#mask1_78_2370)">
<path d="M190.092 208.495L190.067 217.169C190.067 217.19 190.067 217.212 190.067 217.233L190.091 208.56C190.092 208.538 190.092 208.517 190.092 208.495Z" fill="#001332"/>
<path d="M190.091 208.56L190.067 217.233C190.063 217.369 190.047 217.505 190.02 217.639L190.045 208.966C190.072 208.831 190.087 208.696 190.091 208.56Z" fill="#001334"/>
<path d="M190.045 208.966L190.02 217.639C189.994 217.77 189.957 217.899 189.909 218.027L189.934 209.353C189.982 209.226 190.018 209.096 190.045 208.966Z" fill="#001436"/>
<path d="M189.934 209.353L189.909 218.027C189.861 218.155 189.802 218.282 189.731 218.407L189.756 209.733C189.826 209.609 189.885 209.482 189.934 209.353Z" fill="#001438"/>
<path d="M189.756 209.733L189.731 218.407C189.657 218.538 189.571 218.667 189.472 218.792L189.497 210.119C189.595 209.993 189.682 209.864 189.756 209.733Z" fill="#001539"/>
<path d="M189.497 210.119L189.472 218.792C189.356 218.94 189.223 219.084 189.073 219.222L189.097 210.549C189.248 210.41 189.38 210.267 189.497 210.119Z" fill="#00163B"/>
<path d="M189.097 210.549L189.073 219.222C188.848 219.429 188.585 219.625 188.283 219.806L188.307 211.133C188.609 210.952 188.873 210.756 189.097 210.549Z" fill="#00163D"/>
<path d="M188.307 211.133L188.283 219.806C188.258 219.821 188.234 219.836 188.209 219.85C187.791 220.093 187.326 220.295 186.827 220.456L186.852 211.782C187.351 211.621 187.815 211.42 188.233 211.177C188.258 211.162 188.283 211.148 188.307 211.133Z" fill="#00173F"/>
<path d="M186.852 211.782L186.827 220.456C186.441 220.58 186.034 220.68 185.614 220.756L185.638 212.083C186.059 212.007 186.466 211.907 186.852 211.782Z" fill="#00163D"/>
<path d="M185.638 212.083L185.614 220.756C185.333 220.807 185.045 220.846 184.753 220.876L184.778 212.202C185.07 212.173 185.357 212.133 185.638 212.083Z" fill="#00163B"/>
<path d="M184.778 212.202L184.754 220.876C184.498 220.901 184.239 220.918 183.978 220.927L184.003 212.254C184.264 212.245 184.523 212.227 184.778 212.202Z" fill="#001539"/>
<path d="M184.003 212.254L183.978 220.927C183.731 220.935 183.483 220.936 183.234 220.93L183.258 212.257C183.508 212.263 183.756 212.262 184.003 212.254Z" fill="#001438"/>
<path d="M183.258 212.257L183.234 220.93C182.987 220.924 182.74 220.911 182.493 220.89L182.517 212.217C182.764 212.237 183.012 212.251 183.258 212.257Z" fill="#001436"/>
<path d="M182.517 212.217L182.493 220.89C182.24 220.869 181.987 220.841 181.735 220.806L181.76 212.132C182.012 212.168 182.264 212.196 182.517 212.217Z" fill="#001334"/>
<path d="M181.76 212.132L181.735 220.806C181.521 220.775 181.307 220.739 181.094 220.698L181.119 212.025C181.331 212.066 181.545 212.102 181.76 212.132Z" fill="#001332"/>
</g>
<path d="M181.119 212.025L181.094 220.698L171.439 229.596L171.463 220.923L181.119 212.025Z" fill="#001841"/>
<path d="M171.463 220.923L171.439 229.596L160.403 223.225L160.428 214.552L171.463 220.923Z" fill="#00112F"/>
<path d="M219.379 211L224.965 214.225L180.119 240.286L126.98 209.607L171.826 183.545L177.411 186.77L179.74 185.417L187.056 181.165C198.563 174.478 217.326 174.464 228.909 181.152C240.492 187.839 240.531 198.708 229.024 205.395L219.379 211ZM194 185.174L186.684 189.426L184.355 190.779L212.586 207.078L219.339 211.05L219.413 211.087L212.514 207.187L222.23 201.473C229.954 196.984 229.897 189.672 222.122 185.184C214.347 180.694 201.724 180.686 194 185.174ZM171.463 220.923L181.119 212.025C183.647 212.515 186.394 212.246 188.234 211.177C190.937 209.606 190.658 206.906 187.61 205.147C184.563 203.387 179.902 203.235 177.198 204.806C175.358 205.875 174.903 207.466 175.757 208.929L160.428 214.552L171.463 220.923Z" fill="url(#paint2_linear_78_2370)"/>
<path d="M224.965 214.225L224.94 222.898L180.094 248.96L180.119 240.286L224.965 214.225Z" fill="url(#paint3_linear_78_2370)"/>
<path d="M180.119 240.287L180.094 248.96L126.955 218.28L126.98 209.607L180.119 240.287Z" fill="url(#paint4_linear_78_2370)"/>
<path d="M188.909 204.447C192.435 206.483 192.758 209.605 189.63 211.423C187.501 212.66 184.324 212.971 181.399 212.404L170.229 222.697L157.463 215.327L175.196 208.822C174.209 207.131 174.736 205.289 176.864 204.052C179.992 202.235 185.383 202.412 188.909 204.447Z" fill="url(#paint5_linear_78_2370)"/>
<mask id="mask2_78_2370" style="mask-type:luminance" maskUnits="userSpaceOnUse" x="0" y="1" width="300" height="301">
<path d="M0 1.43942H300V301.439H0V1.43942Z" fill="white"/>
</mask>
<g mask="url(#mask2_78_2370)">
<g opacity="0.380048">
<path d="M169.93 172.041C170.381 172.465 171.973 173.413 172.589 173.78C172.851 173.959 173.018 174.078 173.055 174.105C173.061 174.109 173.063 174.111 173.063 174.111L174.503 146.387L175.125 134.391L175.135 134.189L175.137 134.168L175.446 128.199L175.471 127.717L238.044 89.586L235.414 88.0575C235.414 88.0575 234.81 87.6828 233.91 88.2018L171.602 124.186C171.602 124.186 170.991 124.476 170.459 125.197C170.323 125.383 170.192 125.597 170.078 125.844C170.006 125.999 169.94 126.164 169.887 126.343C169.883 126.355 169.878 126.369 169.874 126.384C169.806 126.606 169.753 126.851 169.722 127.115C169.707 127.179 169.691 127.243 169.687 127.309C169.685 127.36 169.666 127.486 169.664 127.677C169.664 127.685 169.739 127.692 169.731 127.7C169.723 127.706 169.8 127.71 169.8 127.717V127.789C169.8 128.419 169.712 129.651 169.706 131.313C169.704 131.766 169.661 132.252 169.658 132.765C169.656 132.78 169.636 132.794 169.638 132.811C169.595 144.69 169.483 171.621 169.93 172.041Z" fill="url(#paint6_linear_78_2370)"/>
<path d="M169.429 164.037C169.429 164.037 169.455 158.419 169.488 151.643C169.452 141.406 169.451 130.869 169.507 129.506C169.569 127.992 169.677 127.197 169.76 126.789C169.793 126.593 169.878 126.384 169.878 126.384L173.978 127.383L174.162 126.93C174.162 126.93 174.584 129.799 175.167 134.189C175.169 134.191 175.2 134.195 175.2 134.197V134.42L174.45 146.387L173.501 163.496C174.053 169.435 174.308 174.156 173.789 174.197C173.726 174.202 173.65 174.203 173.582 174.2C173.548 174.233 173.504 174.252 173.462 174.253C172.249 174.269 169.847 172.455 169.68 171.978C169.652 171.9 169.625 170.773 169.601 168.94C169.518 166.705 169.429 164.037 169.429 164.037Z" fill="url(#paint7_linear_78_2370)"/>
<path d="M172.321 129.245L172.445 172.758C172.447 174.095 173.405 174.641 174.568 173.967L236.676 138.109C237.065 137.884 237.43 137.55 237.743 137.155C238.369 136.37 238.789 135.344 238.787 134.454L238.664 90.9435C238.66 89.6025 237.704 89.0589 236.54 89.7303L174.433 125.589C173.856 125.92 173.332 126.491 172.951 127.144C172.56 127.814 172.319 128.567 172.321 129.245Z" fill="url(#paint8_linear_78_2370)"/>
<mask id="mask3_78_2370" style="mask-type:luminance" maskUnits="userSpaceOnUse" x="180" y="95" width="58" height="34">
<path d="M180.064 126.262L180.814 128.166L237.076 98.7663L237.226 95.0616L180.064 126.262Z" fill="white"/>
</mask>
<g mask="url(#mask3_78_2370)">
<path d="M182.914 127.174L188.78 123.788L188.793 128.484L182.928 131.87L182.914 127.174Z" fill="#FFD55D"/>
<path d="M212.535 121.936L234.915 109.015L234.918 110.065L212.538 122.986L212.535 121.936Z" fill="#FFD55D"/>
<path d="M193.322 140.674L235.635 116.244L235.638 117.293L193.325 141.723L193.322 140.674Z" fill="#FFD55D"/>
<path d="M193.34 146.889L235.653 122.46L235.656 123.509L193.343 147.938L193.34 146.889Z" fill="#FFD55D"/>
<path d="M192.504 133.49L209.468 123.718V124.769L192.504 134.541V133.49Z" fill="#FFD55D"/>
<path d="M204.964 129.524L234.924 112.227L234.927 113.276L204.967 130.574L204.964 129.524Z" fill="white"/>
<path d="M209.635 114.338L228.473 103.462L228.476 104.605L209.638 115.481L209.635 114.338Z" fill="white"/>
<path d="M192.774 124.061L207.053 115.84L207.054 116.985L192.774 125.206V124.061Z" fill="#FFD55D"/>
<path d="M203.264 121.522L228.483 106.962L228.486 108.105L203.267 122.666L203.264 121.522Z" fill="#FFD55D"/>
<path d="M192.781 127.574L200.378 123.188L200.381 124.332L192.785 128.717L192.781 127.574Z" fill="white"/>
<path d="M213.283 138.798L235.663 125.877L235.666 126.926L213.286 139.847L213.283 138.798Z" fill="white"/>
<path d="M204.241 137.703L224.275 126.137L224.277 127.186L204.244 138.752L204.241 137.703Z" fill="white"/>
<path d="M227.188 124.687L234.1 120.696L234.103 121.745L227.191 125.736L227.188 124.687Z" fill="#FFD55D"/>
</g>
<g style="mix-blend-mode:screen" opacity="0.22">
<g style="mix-blend-mode:screen">
<path d="M172.952 127.144L237.743 137.155C238.369 136.37 238.789 135.344 238.787 134.454L238.664 90.9435C238.66 89.6025 237.704 89.0589 236.54 89.7303L174.433 125.589C173.856 125.92 173.333 126.491 172.952 127.144Z" fill="white"/>
</g>
</g>
</g>
</g>
<mask id="mask4_78_2370" style="mask-type:luminance" maskUnits="userSpaceOnUse" x="0" y="-3" width="300" height="301">
<path d="M0 -2.32857H300V297.671H0V-2.32857Z" fill="white"/>
</mask>
<g mask="url(#mask4_78_2370)">
<path d="M67.1232 178.742L67.2597 227.012C67.2597 227.012 67.2597 228.115 68.5752 228.879C69.8907 229.643 70.2933 229.643 70.2933 229.643L79.0524 218.185L141.97 135.884L140.028 134.754C140.028 134.754 139.249 134.4 138.356 134.915C137.465 135.43 69.3414 174.762 69.3414 174.762C69.3414 174.762 68.4141 175.208 67.7601 176.307C67.3989 176.91 67.1208 177.71 67.1232 178.742Z" fill="#2847B5"/>
<path d="M67.1232 178.742L67.2597 227.012C67.2597 227.012 67.2597 228.115 68.5752 228.879C69.8907 229.643 70.2933 229.643 70.2933 229.643L79.0524 218.184C75.5868 201.65 70.32 176.758 70.32 176.758L67.7601 176.306C67.3989 176.909 67.1208 177.71 67.1232 178.742Z" fill="url(#paint9_linear_78_2370)"/>
<path d="M69.0654 179.872L69.2022 228.142C69.2073 229.626 70.2684 230.228 71.5596 229.484L140.452 189.708C141.196 189.278 141.863 188.49 142.292 187.616C142.609 186.974 142.797 186.284 142.795 185.654L142.658 137.384C142.654 135.901 141.594 135.298 140.301 136.045L71.406 175.819C71.013 176.046 70.6446 176.373 70.32 176.758C69.5733 177.642 69.063 178.84 69.0654 179.872Z" fill="url(#paint10_linear_78_2370)"/>
<mask id="mask5_78_2370" style="mask-type:luminance" maskUnits="userSpaceOnUse" x="74" y="173" width="19" height="58">
<path d="M74.6697 224.314L75.1197 230.366L87.7812 225.716L86.8812 219.064L74.6697 224.314Z" fill="white"/>
<path d="M86.9697 177.514L86.5197 185.816L92.1312 183.116L91.6812 173.914L86.9697 177.514Z" fill="white"/>
<path d="M84.7197 189.514L84.2697 197.816L89.8812 195.116L89.4312 185.914L84.7197 189.514Z" fill="white"/>
<path d="M86.2197 190.264L85.7697 198.566L90.4812 196.016L90.1812 186.739L86.2197 190.264Z" fill="white"/>
<path d="M89.0697 200.464L89.5197 213.566L90.7812 212.366L90.6312 200.164L89.0697 200.464Z" fill="white"/>
</mask>
<g mask="url(#mask5_78_2370)">
<path d="M76.1154 197.047L82.3152 193.467L82.3212 195.583L76.1214 199.163L76.1154 197.047Z" fill="#4AFFFF"/>
<path d="M76.0197 185.584L82.2828 181.968L82.2969 186.982L76.0338 190.598L76.0197 185.584Z" fill="#4AFFFF"/>
<path d="M91.0079 196.624L136.189 170.538L136.192 171.658L91.0112 197.744L91.0079 196.624Z" fill="#4AFFFF"/>
<path d="M91.0269 203.26L136.208 177.175L136.211 178.295L91.0302 204.38L91.0269 203.26Z" fill="#4AFFFF"/>
<path d="M90.8837 189.703L108.998 179.269L108.998 180.391L90.8834 190.825L90.8837 189.703Z" fill="#4AFFFF"/>
<path d="M90.8906 193.146L100.527 187.582L100.53 188.703L90.8939 194.266L90.8906 193.146Z" fill="white"/>
<path d="M90.9327 206.958L109.047 196.523L109.047 197.645L90.9324 208.08L90.9327 206.958Z" fill="#4AFFFF"/>
<path d="M90.9396 210.401L100.576 204.837L100.579 205.957L90.9429 211.52L90.9396 210.401Z" fill="white"/>
<path d="M90.9108 200.239L100.547 194.675L100.55 195.795L90.9141 201.359L90.9108 200.239Z" fill="white"/>
<path d="M76.1246 200.407L82.3244 196.827L82.3304 198.943L76.1306 202.523L76.1246 200.407Z" fill="#4AFFFF"/>
<path d="M76.1541 210.714L82.3539 207.135L82.3599 209.251L76.1601 212.83L76.1541 210.714Z" fill="#4AFFFF"/>
<path d="M76.1636 214.157L82.3634 210.578L82.3694 212.694L76.1696 216.273L76.1636 214.157Z" fill="#4AFFFF"/>
<path d="M76.1736 217.6L82.3734 214.021L82.3794 216.137L76.1796 219.716L76.1736 217.6Z" fill="#4AFFFF"/>
<path d="M76.1346 203.891L82.3344 200.312L82.3404 202.427L76.1406 206.007L76.1346 203.891Z" fill="#4AFFFF"/>
<path d="M76.1445 207.335L82.3443 203.755L82.3503 205.871L76.1505 209.45L76.1445 207.335Z" fill="#4AFFFF"/>
</g>
<g style="mix-blend-mode:screen" opacity="0.22">
<g style="mix-blend-mode:screen">
<path d="M70.32 176.758L142.292 187.616C142.609 186.974 142.798 186.284 142.795 185.654L142.659 137.384C142.654 135.901 141.595 135.298 140.301 136.045L71.406 175.818C71.013 176.045 70.6446 176.373 70.32 176.758Z" fill="white"/>
</g>
</g>
<mask id="mask6_78_2370" style="mask-type:luminance" maskUnits="userSpaceOnUse" x="88" y="198" width="4" height="3">
<path d="M88.3563 198.28L91.2282 199.949C91.3791 200.036 91.5372 200.113 91.7019 200.179L88.83 198.51C88.6653 198.444 88.5072 198.368 88.3563 198.28Z" fill="white"/>
</mask>
<g mask="url(#mask6_78_2370)">
<path d="M91.7019 200.179L88.83 198.51C88.6653 198.444 88.5072 198.368 88.3563 198.28L91.2282 199.949C91.3791 200.036 91.5372 200.113 91.7019 200.179Z" fill="#858585"/>
</g>
</g>
<path d="M78.2595 156.601C78.8349 157.142 80.8662 158.351 81.6519 158.818C81.9855 159.047 82.1988 159.199 82.2459 159.234C82.254 159.239 82.2564 159.241 82.2564 159.241L84.0933 123.875L84.8868 108.571L84.8997 108.314L84.9024 108.288L85.2966 100.672L85.3281 100.057L165.15 51.4158L161.795 49.4661C161.795 49.4661 161.025 48.9879 159.877 49.65L80.3934 95.5536C80.3934 95.5536 79.6128 95.9241 78.9348 96.8439C78.7614 97.0803 78.5934 97.3536 78.4488 97.6689C78.3567 97.866 78.2727 98.0763 78.2043 98.3049C78.1989 98.3208 78.1941 98.3391 78.1887 98.3574C78.102 98.6412 78.0336 98.9541 77.9943 99.2904C77.9757 99.372 77.955 99.4533 77.9496 99.5373C77.9469 99.603 77.9232 99.7632 77.9205 100.008C77.9205 100.018 77.9694 100.026 77.9589 100.036C77.9484 100.044 78 100.05 78 100.057V100.15C78 100.954 77.9355 102.525 77.9277 104.646C77.925 105.224 77.8926 105.844 77.8899 106.498C77.8872 106.516 77.8722 106.535 77.8749 106.556C77.8197 121.71 77.6892 156.065 78.2595 156.601Z" fill="#FFC270"/>
<path d="M77.8017 100.918C77.8383 99.1164 78.1941 98.3577 78.1941 98.3577L83.4243 99.6321L83.6583 99.054C83.6583 99.054 84.1554 102.714 84.8991 108.314C84.9018 108.317 84.9 108.322 84.9 108.325V108.608L84.1335 123.875L82.9017 148.053C82.9329 154.681 82.8417 159.507 82.4787 159.355C81.3468 158.88 77.7729 157.127 77.7729 156.214C77.7729 155.301 77.7651 102.719 77.8017 100.918Z" fill="url(#paint11_linear_78_2370)"/>
<path d="M81.3102 102.007L81.4677 157.515C81.4704 159.221 82.6923 159.917 84.177 159.058L163.405 113.314C163.902 113.028 164.367 112.602 164.767 112.098C165.565 111.097 166.101 109.788 166.099 108.653L165.941 53.1477C165.936 51.4371 164.716 50.7432 163.232 51.5997L84.0036 97.3431C83.268 97.7661 82.6005 98.4939 82.1142 99.327C81.615 100.181 81.3075 101.143 81.3102 102.007Z" fill="url(#paint12_linear_78_2370)"/>
<g style="mix-blend-mode:screen" opacity="0.22">
<g style="mix-blend-mode:screen">
<path d="M81.9825 99.0804C81.9825 99.0804 166.16 114.062 166.158 113.433L165.984 53.313C165.979 51.8292 164.92 51.2265 163.626 51.9732L94.5435 91.1844C94.1505 91.4115 82.3071 98.6949 81.9825 99.0804Z" fill="white"/>
</g>
</g>
<mask id="mask7_78_2370" style="mask-type:luminance" maskUnits="userSpaceOnUse" x="0" y="0" width="300" height="300">
<path d="M0 0H300V300H0V0Z" fill="white"/>
</mask>
<g mask="url(#mask7_78_2370)">
<path d="M118.096 116.375L114.226 114.125C114.226 114.125 114.314 107.28 119.201 102.448C124.087 97.6155 126.467 97.5012 131.715 101.087C136.962 104.672 125.903 108.386 125.903 108.386L118.096 116.375Z" fill="#CDCDCD"/>
<path d="M126.41 101.975C121.802 104.635 118.081 111.037 118.096 116.375L134.775 106.745C134.76 101.407 131.014 99.3165 126.41 101.975Z" fill="white"/>
</g>
<mask id="mask8_78_2370" style="mask-type:luminance" maskUnits="userSpaceOnUse" x="0" y="-1" width="300" height="301">
<path d="M0 -0.300018H300V299.7H0V-0.300018Z" fill="white"/>
</mask>
<g mask="url(#mask8_78_2370)">
<path d="M121.629 94.1796C121.629 90.0501 125.075 86.604 129.204 86.604C129.864 86.604 130.506 86.6928 131.12 86.8575C130.883 86.3436 130.368 85.7208 129.47 84.9447C124.41 80.5752 121.169 82.7082 118.604 86.0703C116.038 89.4324 116.215 93.4428 117.572 94.9764C118.928 96.51 122.427 97.896 122.427 97.896C122.427 97.896 122.468 97.8381 122.538 97.7361C121.959 96.6708 121.629 95.4579 121.629 94.1796Z" fill="#CDCDCD"/>
<path d="M126.132 85.4979C123.231 87.1728 120.886 91.2333 120.896 94.5702C120.906 97.9038 123.265 99.2481 126.166 97.5732C129.07 95.8965 131.415 91.8363 131.405 88.5027C131.395 85.1658 129.036 83.8212 126.132 85.4979Z" fill="white"/>
</g>
<g opacity="0.666211">
<path d="M108.862 127.992L107.572 128.736L107.615 133.294L104.102 132.934L103.434 134.706L106.946 134.937L103.446 139.216L104.123 140.181L107.622 135.807L107.606 140.399L108.895 139.654L108.882 135.079L112.395 135.405L113.034 133.68L109.552 133.433L113.022 129.17L112.374 128.158L108.875 132.567L108.862 127.992Z" fill="white"/>
</g>
<mask id="mask9_78_2370" style="mask-type:luminance" maskUnits="userSpaceOnUse" x="-4" y="-8" width="325" height="301">
<path d="M-3.61884 -7.24031H320.833V292.76H-3.61884V-7.24031Z" fill="white"/>
</mask>
<g mask="url(#mask9_78_2370)">
<path d="M42.9798 215.363C43.1291 215.494 42.7219 219.945 42.7219 219.945L38.1724 217.543C38.1724 217.543 41.0837 213.701 42.9798 215.363Z" fill="url(#paint13_linear_78_2370)"/>
<path d="M48.844 111.167C48.844 111.167 52.3231 113.208 50.8731 119.32C49.4231 125.432 44.8948 132.385 36.9275 133.429C28.9603 134.472 38.9644 140.289 43.2845 139.167C47.6046 138.046 60.5645 127.044 59.3517 120.597C58.1389 114.15 48.844 111.167 48.844 111.167Z" fill="url(#paint14_linear_78_2370)"/>
<path d="M61.1965 107.11L57.2226 104.928C57.2226 104.928 54.6127 103.409 50.6917 103.559C46.7707 103.708 41.2654 105.212 33.976 111.643C26.6865 118.074 23.5338 125.096 21.5858 129.749C19.6378 134.402 18.5483 140.66 19.548 146.22C20.5476 151.781 24.0354 154.3 25.2878 154.983C26.5402 155.666 30.8548 157.763 30.8548 157.763C30.8548 157.763 24.9433 142.046 26.9137 136.017C28.8841 129.987 36.3049 115.691 46.2367 111.417C56.1685 107.142 60.8675 107.282 60.8675 107.282L61.1965 107.11Z" fill="url(#paint15_linear_78_2370)"/>
<path d="M31.5316 211.749L26.7242 209.165L26.7362 213.154L31.5436 215.737L31.5316 211.749Z" fill="url(#paint16_linear_78_2370)"/>
<path d="M31.5436 215.737L26.7362 213.154L22.5991 215.363L27.4065 217.946L31.5436 215.737Z" fill="url(#paint17_linear_78_2370)"/>
<path d="M27.4065 217.946L22.5988 215.363L22.6182 221.711L27.4259 224.294L27.4065 217.946Z" fill="url(#paint18_linear_78_2370)"/>
<path d="M38.2153 198.717L33.4079 196.133L33.4167 199.03L38.2241 201.613L38.2153 198.717Z" fill="url(#paint19_linear_78_2370)"/>
<mask id="mask10_78_2370" style="mask-type:luminance" maskUnits="userSpaceOnUse" x="30" y="189" width="13" height="7">
<path d="M42.0068 191.869L37.1991 189.286C34.9143 190.549 32.6266 191.814 30.3389 193.075L35.1466 195.658C37.4343 194.397 39.722 193.132 42.0068 191.869Z" fill="white"/>
</mask>
<g mask="url(#mask10_78_2370)">
<path d="M42.0068 191.869L37.1991 189.286C34.9143 190.549 32.6266 191.814 30.3389 193.075L35.1466 195.658C37.4343 194.397 39.722 193.132 42.0068 191.869Z" fill="url(#paint20_linear_78_2370)"/>
</g>
<path d="M30.3623 200.71L30.8094 200.471C31.6773 199.993 32.5487 199.512 33.4167 199.03L38.2241 201.613C37.3558 202.095 36.485 202.576 35.6171 203.055L35.17 203.293C32.5715 204.739 29.9729 206.176 27.3747 207.609L22.5673 205.026C25.1655 203.592 27.7637 202.156 30.3623 200.71Z" fill="url(#paint21_linear_78_2370)"/>
<path d="M27.375 207.609L22.5673 205.026L22.5868 211.374L27.3945 213.957L27.375 207.609Z" fill="url(#paint22_linear_78_2370)"/>
<path d="M41.9037 158.215L37.0959 155.631L37.1991 189.286L42.0068 191.87L41.9037 158.215Z" fill="url(#paint23_linear_78_2370)"/>
<path d="M35.6171 203.054C36.485 202.575 37.3558 202.095 38.224 201.613L38.2153 198.717L35.1609 200.347L35.1466 195.658C37.4343 194.397 39.722 193.132 42.0068 191.869L41.9036 158.215C31.6919 161.491 23.9745 156.023 23.9391 144.542C23.8989 131.456 33.8508 115.521 46.164 108.948C58.477 102.374 68.4941 107.649 68.5343 120.735C68.5697 132.216 60.9081 145.894 50.7093 153.514L50.8935 213.614C50.8991 215.406 49.536 217.592 47.8463 218.494L45.1579 219.93C43.4682 220.832 42.0934 220.107 42.0879 218.315L42.0824 216.523C39.87 217.685 37.6575 218.851 35.4451 220.013L31.5634 222.086L27.426 224.294L27.4065 217.946L31.5439 215.737L31.5316 211.749L27.3942 213.957L27.375 207.609C29.9736 206.175 32.5714 204.739 35.17 203.293L35.6171 203.054ZM46.2432 134.779C51.6317 131.902 55.9871 124.927 55.9696 119.202C55.9521 113.477 51.5681 111.167 46.1796 114.043C40.7908 116.92 36.4357 123.895 36.4532 129.621C36.4707 135.346 40.8544 137.656 46.2432 134.779Z" fill="url(#paint24_linear_78_2370)"/>
<path d="M35.1463 195.658L30.3389 193.075L30.3535 197.764L35.1609 200.347L35.1463 195.658Z" fill="url(#paint25_linear_78_2370)"/>
</g>
<mask id="mask11_78_2370" style="mask-type:luminance" maskUnits="userSpaceOnUse" x="0" y="0" width="300" height="300">
<path d="M0 0H300V300H0V0Z" fill="white"/>
</mask>
<g mask="url(#mask11_78_2370)">
<path d="M157.351 210.452C157.1 210.806 157.034 211.234 157.226 211.755C157.798 213.305 161.376 216.329 164.15 215.894C166.924 215.459 168.013 214.983 169.808 216.669C171.603 218.355 173.531 216.631 173.531 216.631C173.531 216.631 173.349 218.185 172.052 218.362C171.737 218.406 171.495 218.436 171.379 218.425C169.745 218.278 168.928 218.204 167.552 217.692C165.216 216.821 164.79 217.912 162.16 217.234C159.823 216.63 156.623 214.856 156.555 212.56C156.529 211.684 156.964 210.947 157.351 210.452Z" fill="#462CFF"/>
<path d="M166.775 208.858C166.775 208.858 172.031 208.394 173.079 210.093C173.922 211.459 174.394 215.034 173.531 216.631C173.133 217.367 171.657 218.266 169.931 216.932C167.983 215.426 166.924 215.459 164.15 215.894C161.376 216.329 157.798 213.305 157.226 211.755C157.103 211.42 157.086 211.123 157.157 210.86C157.157 210.86 157.214 210.646 157.352 210.452C157.952 209.607 162.813 209.262 164.236 209.142C164.859 209.09 165.731 209.004 166.775 208.858Z" fill="#4B65F9"/>
</g>
<mask id="mask12_78_2370" style="mask-type:luminance" maskUnits="userSpaceOnUse" x="0" y="0" width="300" height="300">
<path d="M0 0H300V300H0V0Z" fill="white"/>
</mask>
<g mask="url(#mask12_78_2370)">
<path d="M172.352 205.523C172.123 205.846 172.064 206.236 172.241 206.711C172.766 208.123 176.037 210.872 178.565 210.469C181.094 210.065 182.087 209.629 183.728 211.162C185.369 212.695 187.123 211.118 187.123 211.118C187.123 211.118 186.961 212.536 185.778 212.701C185.496 212.741 185.278 212.769 185.165 212.76C183.621 212.632 182.849 212.569 181.73 212.173C179.545 211.402 179.134 212.333 176.753 211.696C174.686 211.141 171.702 209.556 171.63 207.447C171.603 206.645 172.003 205.97 172.352 205.523Z" fill="#462CFF"/>
<path d="M180.942 204.046C180.942 204.046 185.735 203.61 186.695 205.156C187.466 206.399 187.906 209.66 187.123 211.118C186.761 211.791 185.418 212.614 183.841 211.402C182.06 210.033 181.094 210.065 178.565 210.469C176.037 210.872 172.765 208.123 172.24 206.711C172.127 206.406 172.111 206.135 172.175 205.895C172.175 205.895 172.227 205.699 172.352 205.522C172.896 204.751 177.311 204.424 178.464 204.326C179.005 204.28 179.869 204.197 180.942 204.046Z" fill="#4B65F9"/>
</g>
<path d="M161.807 144.94C161.807 144.94 161.474 152.993 161.807 161.325C162.14 169.656 162.584 182.486 163.307 188.485C164.029 194.483 167.694 212.479 167.694 212.479C167.694 212.479 170.416 214.478 173.748 212.423C173.748 212.423 174.859 193.317 174.304 184.319C173.748 175.321 174.637 154.104 176.747 150.327C178.858 146.551 164.639 142.552 161.807 144.94Z" fill="#489BFF"/>
<path d="M174.47 160.103C174.47 160.103 175.637 165.935 177.97 185.596C180.302 205.258 181.302 207.758 181.302 207.758C181.302 207.758 184.051 209.84 187.467 207.841C187.467 207.841 189.717 188.596 188.217 180.098C186.717 171.6 187.634 165.101 188.55 159.353C189.467 153.604 190.133 143.19 187.884 141.191C185.634 139.191 172.638 142.19 172.638 142.44C172.638 142.69 174.47 160.103 174.47 160.103Z" fill="#489BFF"/>
<mask id="mask13_78_2370" style="mask-type:luminance" maskUnits="userSpaceOnUse" x="-36" y="-33" width="399" height="399">
<path d="M-35.1072 92.8584L237.491 -32.4023L362.752 240.196L90.1534 365.457L-35.1072 92.8584Z" fill="white"/>
</mask>
<g mask="url(#mask13_78_2370)">
<path d="M171.675 139.256C171.441 137.498 170.904 135.76 170.106 134.186C175.218 132.101 183.28 128.952 188.729 127.502C190.36 127.068 194.273 127.579 194.881 129.2C195.569 131.035 192.571 133.939 190.753 134.53C186.127 136.036 177.687 138.594 171.941 139.227C171.853 139.236 171.764 139.246 171.675 139.256Z" fill="#F5B68F"/>
<path d="M171.039 134.154C171.127 134.125 171.213 134.097 171.301 134.068C171.281 134.327 171.275 134.588 171.283 134.852C171.333 136.429 171.885 137.892 172.783 139.106C172.607 139.164 172.438 139.222 172.285 139.279C172.286 139.278 172.285 139.277 172.286 139.276C172.031 139.413 171.828 139.566 171.768 139.714C171.392 140.653 170.835 141.299 170.425 142.273C170.266 142.651 170.068 143.583 169.639 143.713C169.132 143.866 168.849 143.441 168.826 142.022C168.82 141.636 169.025 140.978 168.549 140.682C167.774 140.2 166.365 140.572 165.475 140.871C164.585 141.17 161.531 142.274 160.854 142.436C160.528 142.514 160.188 142.599 159.86 142.534C159.531 142.469 159.23 142.192 159.299 141.898C159.363 141.622 159.694 141.473 159.986 141.364C160.184 141.29 164.766 139.645 164.807 139.459C164.834 139.341 164.711 139.237 164.586 139.195C164.238 139.077 159.054 140.455 158.617 140.518C157.691 140.651 157.493 139.615 158.219 139.348C159.349 138.933 164.136 137.947 164.192 137.564C164.022 137.32 159.739 137.994 159.312 137.993C159.03 137.992 158.815 137.994 158.734 137.739C158.527 137.085 159.485 136.853 160.189 136.666C160.774 136.511 161.37 136.394 161.967 136.285C162.143 136.253 164.179 135.942 164.214 135.786C164.04 135.668 162.492 135.888 161.422 135.637C160.675 135.463 160.794 134.806 161.531 134.599C162.948 134.2 164.791 134.833 166.511 134.353C168.684 133.747 170.437 134.023 171.039 134.154Z" fill="#F5B68F"/>
</g>
<mask id="mask14_78_2370" style="mask-type:luminance" maskUnits="userSpaceOnUse" x="-3" y="-3" width="306" height="306">
<path d="M2.61096 -2.18417L302.573 2.60153L297.787 302.563L-2.17474 297.778L2.61096 -2.18417Z" fill="white"/>
</mask>
<g mask="url(#mask14_78_2370)">
<path d="M194.998 119.18C194.998 119.18 195.368 128.399 194.335 129.942C193.302 131.485 189.576 130.009 189.337 129.339C189.098 128.668 188.653 119.995 190.34 118.689C192.027 117.383 194.759 118.51 194.998 119.18Z" fill="#F5B68F"/>
<path d="M186.264 99.9565C186.264 99.9565 191.33 98.3739 194.195 106.835C197.06 115.297 195.31 120.518 195.31 120.518C195.31 120.518 194.009 123.747 188.523 122.91C183.037 122.072 184.236 104.343 184.236 104.343L186.264 99.9565Z" fill="#462CFF"/>
</g>
<mask id="mask15_78_2370" style="mask-type:luminance" maskUnits="userSpaceOnUse" x="-26" y="-24" width="341" height="340">
<path d="M17.2944 -23.9605L314.208 18.9648L271.282 315.878L-25.6309 272.953L17.2944 -23.9605Z" fill="white"/>
</mask>
<g mask="url(#mask15_78_2370)">
<path d="M173.388 97.0707L173.553 101.36C173.553 101.36 179.982 103.861 181.418 99.747L182.02 92.0897L173.388 97.0707Z" fill="#E89B70"/>
<path d="M181.242 97.0841C181.242 97.0841 177.765 100.173 172.079 99.5193C166.394 98.8656 167.192 91.4048 168.898 85.4224C170.605 79.4401 174.243 78.7314 176.921 78.8379C179.599 78.9444 183.213 83.0586 184.034 85.5343C184.855 88.01 185.295 92.7316 181.242 97.0841Z" fill="#F5B68F"/>
<path d="M173.451 92.4764C173.451 92.4764 176.408 87.692 177.913 90.6654C179.419 93.6387 175.994 94.2523 175.701 95.297C175.408 96.3416 175.043 97.6848 175.901 97.9785C176.284 98.1097 176.783 98.3085 177.939 98.4074C178.833 98.4839 179.283 98.5227 179.683 98.487C180.926 98.3762 181.794 97.5353 183.75 95.4052C185.552 93.4418 186.453 92.4599 186.613 92.2096C188.783 88.811 188.875 83.0889 185.754 79.1494C185.284 78.5559 183.013 75.9814 179.7 75.3227C177.747 74.9346 176.058 75.3857 174.409 75.6299C171.281 76.0929 169.93 74.1622 169.195 76.1035C168.46 78.0447 171.607 81.6059 173.409 84.2795C175.211 86.9532 171.956 91.5898 172.704 92.0331C173.451 92.4764 173.451 92.4764 173.451 92.4764Z" fill="#372111"/>
</g>
<mask id="mask16_78_2370" style="mask-type:luminance" maskUnits="userSpaceOnUse" x="-5" y="-6" width="310" height="310">
<path d="M4.6748 -5.74867L304.522 3.82152L294.952 303.669L-4.89538 294.099L4.6748 -5.74867Z" fill="white"/>
</mask>
<g mask="url(#mask16_78_2370)">
<path d="M162.832 124.224C165.35 110.635 167.365 104.947 171.475 104.162C171.931 104.074 172.367 104.004 172.788 103.944C173.001 102.748 173.926 101.378 173.926 101.378C180.428 102.224 181.562 98.8985 181.562 98.8985C182.745 98.5317 183.797 98.803 184.545 99.1558C187.175 98.4521 189.73 99.5443 190.83 101.028C192.348 103.077 194.194 110.555 191.617 118.141C189.041 125.727 191.146 138.131 189.065 140.649C189.065 140.649 185.678 147.543 174.834 147.78C163.99 148.017 160.36 144.234 160.36 144.234C160.36 144.234 160.315 137.814 162.832 124.224Z" fill="#4B65F9"/>
<path d="M172.788 103.944C172.788 103.944 180.406 106.633 184.545 99.1561C184.545 99.1561 183.255 98.098 181.562 98.8985C181.562 98.8985 180.837 101.8 173.925 101.378C173.925 101.378 172.634 102.659 172.788 103.944Z" fill="#462CFF"/>
</g>
<mask id="mask17_78_2370" style="mask-type:luminance" maskUnits="userSpaceOnUse" x="0" y="0" width="300" height="300">
<path d="M0 0H300V300H0V0Z" fill="white"/>
</mask>
<g mask="url(#mask17_78_2370)">
<mask id="mask18_78_2370" style="mask-type:luminance" maskUnits="userSpaceOnUse" x="-73" y="-82" width="419" height="419">
<path d="M100.237 -81.1461L345.829 91.147L173.536 336.738L-72.0557 164.445L100.237 -81.1461Z" fill="white"/>
</mask>
<g mask="url(#mask18_78_2370)">
<path d="M134.686 118.474C134.772 118.509 134.857 118.542 134.942 118.576C134.938 118.317 134.948 118.056 134.972 117.793C135.118 116.222 135.757 114.794 136.726 113.637C136.554 113.569 136.389 113.501 136.24 113.434C136.24 113.436 136.241 113.437 136.241 113.438C135.995 113.285 135.801 113.12 135.751 112.969C135.432 112.01 134.915 111.331 134.565 110.334C134.429 109.947 134.288 109.004 133.867 108.849C133.371 108.665 133.062 109.073 132.954 110.487C132.924 110.873 133.089 111.542 132.596 111.808C131.793 112.242 130.409 111.785 129.539 111.433C128.669 111.081 125.687 109.795 125.021 109.592C124.7 109.494 124.365 109.388 124.034 109.433C123.703 109.479 123.386 109.737 123.436 110.034C123.483 110.314 123.805 110.483 124.09 110.609C124.283 110.694 128.756 112.614 128.787 112.802C128.806 112.921 128.678 113.017 128.55 113.053C128.196 113.149 123.104 111.46 122.672 111.37C121.756 111.182 121.496 112.204 122.204 112.514C123.307 112.997 128.025 114.271 128.059 114.657C127.874 114.89 123.639 113.958 123.213 113.933C122.931 113.917 122.717 113.902 122.621 114.152C122.375 114.792 123.317 115.081 124.008 115.311C124.582 115.501 125.171 115.654 125.76 115.799C125.934 115.841 127.947 116.275 127.973 116.433C127.792 116.54 126.26 116.227 125.177 116.412C124.421 116.541 124.499 117.203 125.222 117.455C126.613 117.939 128.491 117.419 130.179 118.002C132.31 118.739 134.077 118.569 134.686 118.474Z" fill="#F5B68F"/>
</g>
<path d="M131.035 116.297C132.347 115.104 133.471 113.673 134.311 112.121C138.934 115.138 146.112 119.975 150.405 123.631C151.691 124.725 153.497 128.233 152.51 129.656C151.392 131.266 147.298 130.453 145.778 129.295C141.907 126.348 135.001 120.863 131.21 116.499C131.152 116.432 131.094 116.365 131.035 116.297Z" fill="#F5B68F"/>
<mask id="mask19_78_2370" style="mask-type:luminance" maskUnits="userSpaceOnUse" x="-67" y="-61" width="399" height="399">
<path d="M59.4458 -60.8507L331.856 64.8187L206.186 337.229L-66.2236 211.559L59.4458 -60.8507Z" fill="white"/>
</mask>
<g mask="url(#mask19_78_2370)">
<path d="M169.085 108.03C166.279 106.134 160.717 108.014 159.205 109.91C156.301 113.551 149.348 123.39 149.348 123.39C147.928 124.899 146.864 129.216 148.387 130.549C149.767 131.756 151.816 131.272 153.182 129.984L165.633 116.144C167.808 114.093 172.609 110.41 169.085 108.03Z" fill="#F5B68F"/>
<path d="M157.546 124.971C157.546 124.971 153.417 124.504 151.891 119.855C151.891 119.855 155.288 110.503 160.658 107.017C166.028 103.531 172.004 103.902 170.393 110.774C168.783 117.646 159.697 125.352 157.546 124.971Z" fill="#462CFF"/>
</g>
</g>
</g>
</g>
<defs>
<linearGradient id="paint0_linear_78_2370" x1="221.1" y1="195.9" x2="232.804" y2="210.583" gradientUnits="userSpaceOnUse">
<stop stop-color="white"/>
<stop offset="0.22" stop-color="#FFE2A3"/>
<stop offset="0.44" stop-color="#FFC548"/>
<stop offset="0.72" stop-color="#FFB348"/>
<stop offset="1" stop-color="#FFA148"/>
</linearGradient>
<linearGradient id="paint1_linear_78_2370" x1="201" y1="167.4" x2="211.427" y2="214.43" gradientUnits="userSpaceOnUse">
<stop stop-color="white"/>
<stop offset="0.22" stop-color="#FFE2A3"/>
<stop offset="0.44" stop-color="#FFC548"/>
<stop offset="0.72" stop-color="#FFB348"/>
<stop offset="1" stop-color="#FFA148"/>
</linearGradient>
<linearGradient id="paint2_linear_78_2370" x1="238.8" y1="173.4" x2="143.7" y2="231.6" gradientUnits="userSpaceOnUse">
<stop stop-color="white"/>
<stop offset="0.22" stop-color="#FFE2A3"/>
<stop offset="0.44" stop-color="#FFC548"/>
<stop offset="0.72" stop-color="#FFB348"/>
<stop offset="1" stop-color="#FFA148"/>
</linearGradient>
<linearGradient id="paint3_linear_78_2370" x1="192.9" y1="207.9" x2="211.627" y2="253.865" gradientUnits="userSpaceOnUse">
<stop stop-color="white"/>
<stop offset="0.22" stop-color="#FFE2A3"/>
<stop offset="0.44" stop-color="#FFC548"/>
<stop offset="0.72" stop-color="#FFB348"/>
<stop offset="1" stop-color="#FFA148"/>
</linearGradient>
<linearGradient id="paint4_linear_78_2370" x1="146.1" y1="240.6" x2="167.806" y2="206.339" gradientUnits="userSpaceOnUse">
<stop stop-color="white"/>
<stop offset="0.22" stop-color="#FFE2A3"/>
<stop offset="0.44" stop-color="#FFC548"/>
<stop offset="0.72" stop-color="#FFB348"/>
<stop offset="1" stop-color="#FFA148"/>
</linearGradient>
<linearGradient id="paint5_linear_78_2370" x1="179.7" y1="221.1" x2="172.323" y2="207.764" gradientUnits="userSpaceOnUse">
<stop stop-color="#003286"/>
<stop offset="0.5" stop-color="#005CBC"/>
<stop offset="1" stop-color="#0085F2"/>
</linearGradient>
<linearGradient id="paint6_linear_78_2370" x1="373.437" y1="110.039" x2="312.694" y2="75.5202" gradientUnits="userSpaceOnUse">
<stop stop-color="#E06868"/>
<stop offset="0.5" stop-color="#C64949"/>
<stop offset="1" stop-color="#AB2B2B"/>
</linearGradient>
<linearGradient id="paint7_linear_78_2370" x1="242.029" y1="128.639" x2="242.164" y2="87.2868" gradientUnits="userSpaceOnUse">
<stop offset="0.02" stop-color="#6D1111"/>
<stop offset="0.15" stop-color="#7B1414"/>
<stop offset="1" stop-color="#891818"/>
</linearGradient>
<linearGradient id="paint8_linear_78_2370" x1="379.609" y1="88.1394" x2="305.456" y2="2.55513" gradientUnits="userSpaceOnUse">
<stop stop-color="#FF5C5C"/>
<stop offset="0.5" stop-color="#E34545"/>
<stop offset="1" stop-color="#C72D2D"/>
</linearGradient>
<linearGradient id="paint9_linear_78_2370" x1="937.575" y1="186.371" x2="911.419" y2="153.81" gradientUnits="userSpaceOnUse">
<stop stop-color="#193891"/>
<stop offset="0.5" stop-color="#203FA3"/>
<stop offset="1" stop-color="#2847B5"/>
</linearGradient>
<linearGradient id="paint10_linear_78_2370" x1="1065.06" y1="135.071" x2="1010.99" y2="67.7529" gradientUnits="userSpaceOnUse">
<stop stop-color="#00AEEF"/>
<stop offset="0.5" stop-color="#2C91EB"/>
<stop offset="1" stop-color="#5873E7"/>
</linearGradient>
<linearGradient id="paint11_linear_78_2370" x1="-294.527" y1="159.9" x2="-285.046" y2="223.654" gradientUnits="userSpaceOnUse">
<stop stop-color="#F99E43"/>
<stop offset="0.26" stop-color="#E98D2D"/>
<stop offset="1" stop-color="#D87B16"/>
</linearGradient>
<linearGradient id="paint12_linear_78_2370" x1="206.909" y1="37.5" x2="162.715" y2="13.5231" gradientUnits="userSpaceOnUse">
<stop stop-color="white"/>
<stop offset="0.22" stop-color="#FFE2A3"/>
<stop offset="0.44" stop-color="#FFC548"/>
<stop offset="0.72" stop-color="#FFB348"/>
<stop offset="1" stop-color="#FFA148"/>
</linearGradient>
<linearGradient id="paint13_linear_78_2370" x1="131.2" y1="166.76" x2="40.5799" y2="231.726" gradientUnits="userSpaceOnUse">
<stop stop-color="white"/>
<stop offset="0.22" stop-color="#FFE2A3"/>
<stop offset="0.44" stop-color="#FFC548"/>
<stop offset="0.72" stop-color="#FFB348"/>
<stop offset="1" stop-color="#FFA148"/>
</linearGradient>
<linearGradient id="paint14_linear_78_2370" x1="162.204" y1="132.26" x2="136.489" y2="144.007" gradientUnits="userSpaceOnUse">
<stop stop-color="white"/>
<stop offset="0.22" stop-color="#FFE2A3"/>
<stop offset="0.44" stop-color="#FFC548"/>
<stop offset="0.72" stop-color="#FFB348"/>
<stop offset="1" stop-color="#FFA148"/>
</linearGradient>
<linearGradient id="paint15_linear_78_2370" x1="69.3853" y1="100.76" x2="30.3848" y2="161.758" gradientUnits="userSpaceOnUse">
<stop stop-color="#FFA348"/>
<stop offset="0.22" stop-color="#FFB448"/>
<stop offset="0.44" stop-color="#FFC548"/>
<stop offset="0.72" stop-color="#FFB348"/>
<stop offset="1" stop-color="#FFA148"/>
</linearGradient>
<linearGradient id="paint16_linear_78_2370" x1="96.6029" y1="166.16" x2="23.2179" y2="239.166" gradientUnits="userSpaceOnUse">
<stop stop-color="white"/>
<stop offset="0.22" stop-color="#FFE2A3"/>
<stop offset="0.44" stop-color="#FFC548"/>
<stop offset="0.72" stop-color="#FFB348"/>
<stop offset="1" stop-color="#FFA148"/>
</linearGradient>
<linearGradient id="paint17_linear_78_2370" x1="29.9398" y1="221.96" x2="26.5644" y2="211.591" gradientUnits="userSpaceOnUse">
<stop stop-color="white"/>
<stop offset="0.22" stop-color="#FFE2A3"/>
<stop offset="0.44" stop-color="#FFC548"/>
<stop offset="0.72" stop-color="#FFB348"/>
<stop offset="1" stop-color="#FFA148"/>
</linearGradient>
<linearGradient id="paint18_linear_78_2370" x1="28.5797" y1="227.36" x2="24.0449" y2="214.244" gradientUnits="userSpaceOnUse">
<stop stop-color="white"/>
<stop offset="0.22" stop-color="#FFE2A3"/>
<stop offset="0.44" stop-color="#FFC548"/>
<stop offset="0.72" stop-color="#FFB348"/>
<stop offset="1" stop-color="#FFA148"/>
</linearGradient>
<linearGradient id="paint19_linear_78_2370" x1="29.8276" y1="208.16" x2="33.2665" y2="205.422" gradientUnits="userSpaceOnUse">
<stop stop-color="white"/>
<stop offset="0.22" stop-color="#FFE2A3"/>
<stop offset="0.44" stop-color="#FFC548"/>
<stop offset="0.72" stop-color="#FFB348"/>
<stop offset="1" stop-color="#FFA148"/>
</linearGradient>
<linearGradient id="paint20_linear_78_2370" x1="33.2992" y1="202.085" x2="41.9725" y2="194.31" gradientUnits="userSpaceOnUse">
<stop stop-color="white"/>
<stop offset="0.22" stop-color="#FFE2A3"/>
<stop offset="0.44" stop-color="#FFC548"/>
<stop offset="0.72" stop-color="#FFB348"/>
<stop offset="1" stop-color="#FFA148"/>
</linearGradient>
<linearGradient id="paint21_linear_78_2370" x1="18.987" y1="211.46" x2="39.0023" y2="201.643" gradientUnits="userSpaceOnUse">
<stop stop-color="white"/>
<stop offset="0.22" stop-color="#FFE2A3"/>
<stop offset="0.44" stop-color="#FFC548"/>
<stop offset="0.72" stop-color="#FFB348"/>
<stop offset="1" stop-color="#FFA148"/>
</linearGradient>
<linearGradient id="paint22_linear_78_2370" x1="28.4357" y1="215.96" x2="23.9376" y2="203.25" gradientUnits="userSpaceOnUse">
<stop stop-color="white"/>
<stop offset="0.22" stop-color="#FFE2A3"/>
<stop offset="0.44" stop-color="#FFC548"/>
<stop offset="0.72" stop-color="#FFB348"/>
<stop offset="1" stop-color="#FFA148"/>
</linearGradient>
<linearGradient id="paint23_linear_78_2370" x1="48.0053" y1="209.06" x2="46.5627" y2="157.78" gradientUnits="userSpaceOnUse">
<stop stop-color="white"/>
<stop offset="0.22" stop-color="#FFE2A3"/>
<stop offset="0.44" stop-color="#FFC548"/>
<stop offset="0.72" stop-color="#FFB348"/>
<stop offset="1" stop-color="#FFA148"/>
</linearGradient>
<linearGradient id="paint24_linear_78_2370" x1="68.1391" y1="76.4597" x2="47.5295" y2="227.733" gradientUnits="userSpaceOnUse">
<stop stop-color="white"/>
<stop offset="0.22" stop-color="#FFE2A3"/>
<stop offset="0.44" stop-color="#FFC548"/>
<stop offset="0.72" stop-color="#FFB348"/>
<stop offset="1" stop-color="#FFA148"/>
</linearGradient>
<linearGradient id="paint25_linear_78_2370" x1="36.5112" y1="201.185" x2="30.1098" y2="191.391" gradientUnits="userSpaceOnUse">
<stop stop-color="white"/>
<stop offset="0.22" stop-color="#FFE2A3"/>
<stop offset="0.44" stop-color="#FFC548"/>
<stop offset="0.72" stop-color="#FFB348"/>
<stop offset="1" stop-color="#FFA148"/>
</linearGradient>
<clipPath id="clip0_78_2370">
<rect width="300" height="300" fill="white"/>
</clipPath>
</defs>
</svg>
