<svg width="20" height="20" viewBox="0 0 20 20" fill="none" xmlns="http://www.w3.org/2000/svg">
<g clip-path="url(#clip0_31_1008)">
<path fill-rule="evenodd" clip-rule="evenodd" d="M11.6667 10.8333C11.8708 10.8334 12.0678 10.9083 12.2203 11.0439C12.3728 11.1796 12.4703 11.3665 12.4942 11.5692L12.5 11.6667V16.6667C12.4998 16.8791 12.4184 17.0834 12.2726 17.2378C12.1268 17.3923 11.9275 17.4852 11.7155 17.4976C11.5035 17.5101 11.2947 17.4411 11.1318 17.3048C10.9689 17.1685 10.8643 16.9751 10.8392 16.7642L10.8333 16.6667V11.6667C10.8333 11.4457 10.9211 11.2337 11.0774 11.0774C11.2337 10.9211 11.4457 10.8333 11.6667 10.8333ZM14.1667 14.5833C14.3877 14.5833 14.5996 14.6711 14.7559 14.8274C14.9122 14.9837 15 15.1957 15 15.4167V16.6667C15 16.8877 14.9122 17.0996 14.7559 17.2559C14.5996 17.4122 14.3877 17.5 14.1667 17.5C13.9457 17.5 13.7337 17.4122 13.5774 17.2559C13.4211 17.0996 13.3333 16.8877 13.3333 16.6667V15.4167C13.3333 15.1957 13.4211 14.9837 13.5774 14.8274C13.7337 14.6711 13.9457 14.5833 14.1667 14.5833ZM16.6667 10.8333C16.8708 10.8334 17.0678 10.9083 17.2203 11.0439C17.3728 11.1796 17.4703 11.3665 17.4942 11.5692L17.5 11.6667V16.6667C17.4998 16.8791 17.4184 17.0834 17.2726 17.2378C17.1268 17.3923 16.9275 17.4852 16.7155 17.4976C16.5035 17.5101 16.2947 17.4411 16.1318 17.3048C15.9689 17.1685 15.8643 16.9751 15.8392 16.7642L15.8333 16.6667V11.6667C15.8333 11.4457 15.9211 11.2337 16.0774 11.0774C16.2337 10.9211 16.4457 10.8333 16.6667 10.8333ZM7.5 10.8333C7.94203 10.8333 8.36595 11.0089 8.67851 11.3215C8.99107 11.634 9.16667 12.058 9.16667 12.5V15.8333C9.16667 16.2754 8.99107 16.6993 8.67851 17.0118C8.36595 17.3244 7.94203 17.5 7.5 17.5H4.16667C3.72464 17.5 3.30072 17.3244 2.98816 17.0118C2.67559 16.6993 2.5 16.2754 2.5 15.8333V12.5C2.5 12.058 2.67559 11.634 2.98816 11.3215C3.30072 11.0089 3.72464 10.8333 4.16667 10.8333H7.5ZM7.5 12.5H4.16667V15.8333H7.5V12.5ZM14.1667 10.8333C14.3708 10.8334 14.5678 10.9083 14.7203 11.0439C14.8728 11.1796 14.9703 11.3665 14.9942 11.5692L15 11.6667V12.9167C14.9998 13.1291 14.9184 13.3334 14.7726 13.4878C14.6268 13.6423 14.4275 13.7352 14.2155 13.7476C14.0035 13.7601 13.7947 13.6911 13.6318 13.5548C13.4689 13.4185 13.3643 13.2251 13.3392 13.0142L13.3333 12.9167V11.6667C13.3333 11.4457 13.4211 11.2337 13.5774 11.0774C13.7337 10.9211 13.9457 10.8333 14.1667 10.8333ZM7.5 2.5C7.94203 2.5 8.36595 2.67559 8.67851 2.98816C8.99107 3.30072 9.16667 3.72464 9.16667 4.16667V7.5C9.16667 7.94203 8.99107 8.36595 8.67851 8.67851C8.36595 8.99107 7.94203 9.16667 7.5 9.16667H4.16667C3.72464 9.16667 3.30072 8.99107 2.98816 8.67851C2.67559 8.36595 2.5 7.94203 2.5 7.5V4.16667C2.5 3.72464 2.67559 3.30072 2.98816 2.98816C3.30072 2.67559 3.72464 2.5 4.16667 2.5H7.5ZM15.8333 2.5C16.2754 2.5 16.6993 2.67559 17.0118 2.98816C17.3244 3.30072 17.5 3.72464 17.5 4.16667V7.5C17.5 7.94203 17.3244 8.36595 17.0118 8.67851C16.6993 8.99107 16.2754 9.16667 15.8333 9.16667H12.5C12.058 9.16667 11.634 8.99107 11.3215 8.67851C11.0089 8.36595 10.8333 7.94203 10.8333 7.5V4.16667C10.8333 3.72464 11.0089 3.30072 11.3215 2.98816C11.634 2.67559 12.058 2.5 12.5 2.5H15.8333ZM7.5 4.16667H4.16667V7.5H7.5V4.16667ZM15.8333 4.16667H12.5V7.5H15.8333V4.16667Z" fill="white"/>
</g>
<defs>
<clipPath id="clip0_31_1008">
<rect width="20" height="20" fill="white"/>
</clipPath>
</defs>
</svg>
