<svg width="38" height="42" viewBox="0 0 38 42" fill="none" xmlns="http://www.w3.org/2000/svg">
<path d="M20.4625 0.572918L35.0458 6.04167C35.8402 6.33945 36.5248 6.87262 37.008 7.56991C37.4912 8.2672 37.7501 9.09539 37.75 9.94375V21.1167C37.7501 24.5988 36.7805 28.0122 34.9499 30.9743C33.1192 33.9364 30.4999 36.3302 27.3854 37.8875L20.3979 41.3813C19.9639 41.5983 19.4853 41.7114 19 41.7114C18.5147 41.7114 18.0361 41.5983 17.6021 41.3813L10.6146 37.8875C7.50008 36.3302 4.88076 33.9364 3.05014 30.9743C1.21952 28.0122 0.249925 24.5988 0.25 21.1167V9.94375C0.249894 9.09539 0.508758 8.2672 0.991985 7.56991C1.47521 6.87262 2.15978 6.33945 2.95417 6.04167L17.5375 0.572918C18.4805 0.219448 19.5195 0.219448 20.4625 0.572918ZM19 4.475L4.41667 9.94375V21.1167C4.41715 23.8247 5.17165 26.4792 6.59566 28.7826C8.01966 31.086 10.0569 32.9474 12.4792 34.1583L19 37.4229L25.5208 34.1625C27.9437 32.9513 29.9814 31.0892 31.4054 28.785C32.8295 26.4808 33.5836 23.8254 33.5833 21.1167V9.94375L19 4.475ZM19 12.6667C19.8893 12.6663 20.7554 12.9505 21.4716 13.4776C22.1878 14.0048 22.7166 14.7473 22.9806 15.5965C23.2446 16.4457 23.2299 17.3571 22.9388 18.1974C22.6476 19.0377 22.0953 19.7628 21.3625 20.2667L21.0833 20.4438V27.25C21.0827 27.781 20.8794 28.2917 20.5149 28.6779C20.1504 29.064 19.6522 29.2963 19.1221 29.3274C18.592 29.3586 18.07 29.1861 17.6628 28.8453C17.2557 28.5045 16.994 28.021 16.9312 27.4938L16.9167 27.25V20.4438C16.1213 19.9856 15.4996 19.2776 15.1479 18.4298C14.7962 17.582 14.7343 16.6418 14.9718 15.7552C15.2093 14.8686 15.7329 14.0852 16.4613 13.5267C17.1897 12.9683 18.0821 12.6659 19 12.6667Z" fill="#2BE13D"/>
</svg>
